<svg xmlns="http://www.w3.org/2000/svg" viewBox="0 0 586.57 686.1"><defs><style>.cls-1{fill:#606060;}.cls-2{fill:#484848;}.cls-12,.cls-3{fill:#a2a2a2;}.cls-4{fill:#7a7a7a;opacity:0.7;}.cls-5,.cls-6{fill:none;stroke:#666;}.cls-12,.cls-5,.cls-6{stroke-linecap:round;}.cls-12,.cls-5,.cls-6,.cls-7,.cls-8{stroke-miterlimit:10;}.cls-5{stroke-width:22px;}.cls-6{stroke-width:20px;}.cls-10,.cls-7{fill:#fff;}.cls-7{stroke:#ddd;stroke-width:5px;}.cls-8{fill:#ddd;stroke-width:0.25px;}.cls-12,.cls-8{stroke:#fff;}.cls-9{fill:#9d9d9d;}.cls-11{fill:#8d8d8d;}.cls-12{stroke-width:8px;}.cls-13{fill:#666;}</style></defs><g id="Capa_10" data-name="Capa 10"><path class="cls-1" d="M806.47,660.26c-12-19.77-61.31-55.22-125.56-87.41-73-36.57-145.24,72.06-145.24,72.06S462.05,537.76,399.61,465c-4.3,5.13-8.65,10.2-12.95,15.26-17.68,20.79-36.31,40.84-52.91,62.52-15.94,20.84-30.27,43.47-38.08,68.69-8.46,27.33-8.18,56.07-1.06,83.67,7.53,29.17,22.84,56.28,45.48,76.35a208.14,208.14,0,0,0,19.55,15.39c13.94,6.85,28.71,12,43.12,17.94,53.31,14.93,120.56,53.46,147.94,8.58,62.45-102.37,95.54-55.29,119.49-56.69,56-3.26,42.82-84,129.59-84.3A8,8,0,0,0,806.47,660.26Z" transform="translate(-221.92 -148.39)"/><path class="cls-2" d="M784.1,657.37a4.84,4.84,0,0,1-4.08-1.26c-17.93-16-35.55-32.63-55.78-45.75-18.63-12.08-40.16-22.78-62.7-23.66-23.11-.91-45.21,7.59-65.79,17.24-10.23,4.79-20.28,10.8-31.83,11.5a33.71,33.71,0,0,1-4,0,255.79,255.79,0,0,0-24.26,29.87S462,538.15,399.57,465.42c-4.3,5.13-8.65,10.2-12.95,15.26-17.68,20.79-36.3,40.83-52.9,62.52-16,20.83-30.27,43.47-38.09,68.69-8.46,27.32-8.18,56.07-1.06,83.67,7.53,29.17,22.84,56.28,45.48,76.35A209.8,209.8,0,0,0,359.6,787.3c13.94,6.85,28.71,12,43.12,17.94,13.46,3.77,27.81,9,42.19,14.1,12.22,3.11,24.44,6.28,37,7.27,21.48,1.71,41.92-.34,59.19-14.4,15.42-12.57,23.93-29.5,33.46-46.51,9.84-17.59,21.72-32.11,39.76-41.74,18.31-9.77,38.44-13,58.91-14.44,5.4-.38,10.8-.67,16.19-1,2.16-.13,4.35-.17,6.51-.41,0,0,1.2-.23,1.43-.3a92.45,92.45,0,0,0,10.2-3.66c15.67-6.57,30.95-14.29,46.74-20.63,8.49-4.82,18.74-8.36,31.55-9.87a51.29,51.29,0,0,1,15.29-1,7.81,7.81,0,0,0,5.43-4A165.22,165.22,0,0,1,784.1,657.37Z" transform="translate(-221.92 -148.39)"/></g><g id="Capa_8" data-name="Capa 8"><path class="cls-3" d="M316,429.81s-55,54-66.3,76.66c-50.55,101.68-19.48,162.27-5.53,194.28,14.35,32.92,55.32,67.48,97.89,83.5,36.06,13.56,81.93,23.23,109,16.92,32.63-7.61,63.9-18.92,89.92-39.06,48.83-37.79,134.44-86.44,168.32-92.11,38.49-6.44,68.65-2.92,90.59,3.25,7.25,2,11.86-7.53,5.72-11.89-21.76-15.49-54.73-41-108.37-48.36-35.65-4.86-74.14-1.42-106.73,3.48C558.41,621.3,459.61,650,459.61,650l-42.89-61,12.47-101.17Z" transform="translate(-221.92 -148.39)"/><path class="cls-4" d="M808.17,668.75a13.31,13.31,0,0,0-2.53-4.47c-7.5-8.88-23.76-10.27-34.39-11.89A269.42,269.42,0,0,0,719.61,650c-35.46,1.48-70.53,8.74-104.44,19-59.58,18-116.27,47.58-179.55,50.57-30.08,1.42-60.66-4.28-86.33-20.6-11.89-7.56-19.2-20.66-26.94-32.08-10.82-16-21.52-32.14-34.23-46.67-8-9.11-21.54-24.68-34.55-22.9-6.3.87-11.16,6.87-14.2,12.65-5.43,10.35-6.88,22.64-7.07,34.17A161.88,161.88,0,0,0,236,681.56c2.92,7.29,5.83,13.66,8.24,19.19,14.35,32.92,55.32,67.48,97.89,83.5,36.06,13.56,81.93,23.23,109,16.92,32.63-7.61,63.9-18.92,89.92-39.06,48.83-37.79,134.44-86.44,168.32-92.11,38.49-6.44,68.65-2.92,90.59,3.25A6.6,6.6,0,0,0,808.17,668.75Z" transform="translate(-221.92 -148.39)"/></g><g id="Capa_11" data-name="Capa 11"><path class="cls-1" d="M577.61,375.84c18.58-7.26,35.58-23.3,22.29-51.93-9.76-21-36.21-28.66-54.8-21.4s-15.88,18.58-7.44,40.17S559,383.11,577.61,375.84Z" transform="translate(-221.92 -148.39)"/><path class="cls-1" d="M568.9,371.16c-19.85,6.43-27,30.85-25,50.84,2.06,20.76,21.88,31.72,41.73,25.29s24.65-9.56,31.65-32.6C624.49,391.06,588.75,364.73,568.9,371.16Z" transform="translate(-221.92 -148.39)"/><path class="cls-1" d="M557.47,435.21c-18.52-1.11-34.16,22.14-39,39.34-5,17.86,12,28.74,26.36,34.48,17.23,6.91,34.23-6.73,42.79-23.19C597.76,466.35,576,436.33,557.47,435.21Z" transform="translate(-221.92 -148.39)"/><path class="cls-2" d="M591.31,341c-6.92-3.13-12.06-9.19-16.84-14.9-5-6-9.94-12.81-16.75-16.83-4-2.33-12.92-5-15.7.36-2.7,5.16,1.74,13.25,4.41,17.48,3.15,5,8.65,11.77,15,12.51s6.53,10.4,0,10c-4.67-.28-13.5.4-19.09,3.63,8.3,16.61,19.83,28.59,35.27,22.56,14.1-5.52,27.28-16.09,27-33.39A21.23,21.23,0,0,1,591.31,341Z" transform="translate(-221.92 -148.39)"/><path class="cls-2" d="M598.73,425.57c-.13-.1-.24-.21-.36-.32a25.48,25.48,0,0,1-5.34-.71c-9.31-2.36-14.61-9.58-17.16-18.42-1.84-6.39-2.17-15.32-9.71-17.53a24.93,24.93,0,0,0-17.3,1.5c-4.5,9.69-6,21.41-4.93,31.91,2.06,20.76,21.88,31.72,41.73,25.29,6.88-2.22,12-4.06,15.93-6.46C603.58,435.53,603.31,428.93,598.73,425.57Z" transform="translate(-221.92 -148.39)"/><path class="cls-2" d="M559.26,459a13.44,13.44,0,0,0-4.92-4.58c-3.94-2.28-8.6-2.78-13.07-2.63a48.85,48.85,0,0,0-13.16,2.36,72.56,72.56,0,0,0-9.64,20.37c-5,17.87,12,28.74,26.36,34.49,17.23,6.91,34.23-6.74,42.79-23.2a24.45,24.45,0,0,0,2.48-13.37A14.16,14.16,0,0,0,584,474.8c-4.21,2.72-8.57,5.08-13.7,3.58s-10.18-6.24-10.49-11.78C559.69,463.83,560.73,461.53,559.26,459Z" transform="translate(-221.92 -148.39)"/></g><g id="Cara"><path class="cls-3" d="M580.57,425.09c-14.5,67.62-70,93.59-151.66,76.07S302.12,432.73,316.63,365.1,410.69,249.49,491.72,278C570.31,305.68,595.08,357.46,580.57,425.09Z" transform="translate(-221.92 -148.39)"/><path class="cls-4" d="M491.31,485.7c-11.18-2.59-23-4.09-34.65-6.39-2,2.33-6.18,3-8.32-.38-.37-.59-.76-1.15-1.14-1.73A97.4,97.4,0,0,1,426,469.5c-10.92-5.67-21.57-11.81-32.76-17a36.77,36.77,0,0,0-6.23.69c-.82.16-1.63.33-2.45.51a8.85,8.85,0,0,0-.63,1.13c-2.75,5.95,1.12,13.74,4.31,18.72,6.56,10.24,16.41,18.25,26.4,25.38q6.93,1.93,14.26,3.51c38.61,8.28,71.36,6.84,96.7-4.12C513.73,495.36,503.26,488.47,491.31,485.7Z" transform="translate(-221.92 -148.39)"/><path class="cls-5" d="M425.22,382.41a227,227,0,0,0,37.15,7" transform="translate(-221.92 -148.39)"/><path class="cls-6" d="M534.51,401.88a113.48,113.48,0,0,0,27.86,3.48" transform="translate(-221.92 -148.39)"/></g><g id="Pecera"><path class="cls-7" d="M615.34,547.58c15.54,63.7-26,108.09-89.66,123.63s-125.48-3.64-141-67.34S408.5,487.34,472.2,471.8,599.8,483.88,615.34,547.58Z" transform="translate(-221.92 -148.39)"/><path class="cls-8" d="M596.79,551.51c13,53.43-21.77,90.66-75.2,103.7s-105.25-3.06-118.28-56.49S423.3,501,476.73,488,583.76,498.08,596.79,551.51Z" transform="translate(-221.92 -148.39)"/><g id="Capa_3" data-name="Capa 3"><path class="cls-9" d="M536,633.08a6.5,6.5,0,0,1-5.55-3.39c-3.6-5.65-4.45-21.93-3.72-28.18C497.55,581.6,483.6,549.33,490.24,517a8.15,8.15,0,0,1,.22-.85c4-12.09,13.36-19,25.69-19,15.82,0,33.83,11.62,40.22,25.92,12.18,19.31,7.9,42.81,2.47,61.49,15.8,6.6,21.15,15.76,22.94,18.83a7,7,0,0,1-5,10.42c-22.61,3.3-29.93,8.38-35.52,16.6l-.29.43-.4.35A7,7,0,0,1,536,633.08Z" transform="translate(-221.92 -148.39)"/><path class="cls-10" d="M516.15,501.16c14.33,0,30.83,10.57,36.61,23.65a3,3,0,0,0,.16.31c11.45,18,7.38,40.51,1.65,59.79a2.45,2.45,0,0,0,1.26,2.76c14.35,5.6,19.81,13.14,22.5,17.75a3,3,0,0,1-2.13,4.45c-22.85,3.33-31.58,8.49-38.25,18.3a3.18,3.18,0,0,1-2,.91c-5.78,0-5.88-26.51-5.19-28a2.46,2.46,0,0,0-.87-2.23c-27-18-42.42-48.57-35.74-81a2.28,2.28,0,0,1,.11-.41c3.84-11.62,12.38-16.26,21.88-16.26m0-8h0c-14.17,0-24.91,7.93-29.48,21.75a12.05,12.05,0,0,0-.35,1.31,81.79,81.79,0,0,0,5.82,50.89,92.62,92.62,0,0,0,30.37,36.36,88,88,0,0,0,.21,9.71c.86,13.24,3.46,17.32,4.31,18.66a10.6,10.6,0,0,0,8.93,5.24,10.93,10.93,0,0,0,7.21-2.86l.8-.68.59-.87c5.06-7.44,11.52-11.79,32.79-14.89a11,11,0,0,0,7.89-16.4c-4.75-8.13-11.85-14.4-21.61-19.06,5.14-18.82,8.38-41.7-3.73-61.13-7.18-15.75-26.31-28-43.75-28Z" transform="translate(-221.92 -148.39)"/><path class="cls-11" d="M554.86,614.22a32.42,32.42,0,0,1-8.61-9.12c-1.45-2.39-3.72-6.45-4.44-10l-1.47-.92a92,92,0,0,1-11.72-8.5c-9-7.77-16.82-17.2-21.77-28a54.78,54.78,0,0,1-8.32-19.78c-1.08-5.58-.32-12-2.74-17.26l-.36-.74-.22.28a24.48,24.48,0,0,0-2,3.62C489.4,554,504.56,582,529.9,598.85a2.46,2.46,0,0,1,.87,2.23c-.77,1.64-.55,33.75,7.18,27.09,4.1-6,9-10.31,17.47-13.49C555.23,614.53,555,614.38,554.86,614.22Z" transform="translate(-221.92 -148.39)"/></g></g><g id="Patitas"><path class="cls-3" d="M454.36,575.76c4.43,35.88-22.63,39.35-35.74,45.41-48.59,22.43-50.46,29.63-49,28.94l-63.32-22.47-8.51-58.9,28.93-52.42,65.36-4.77S450,540.38,454.36,575.76Z" transform="translate(-221.92 -148.39)"/><path class="cls-3" d="M445.51,707l11.59,5.55a235.83,235.83,0,0,1,31.12-1.22,122,122,0,0,1,18.95-6.69l.92-.71s6.87-9.19,0-29.26c-5.17-15.11-6.45-33.35-30.41-38.14-22.84-4.57-42.37,33.78-43.91,39.84C427.64,700.32,445.51,707,445.51,707Z" transform="translate(-221.92 -148.39)"/><path class="cls-12" d="M390.75,511.55s57.93,28.83,62.3,64.21c4.43,35.88-22.63,39.35-35.75,45.41-48.59,22.43-19,9.12-17.53,8.42" transform="translate(-221.92 -148.39)"/><path class="cls-12" d="M436.77,679.6c1.54-6.06,21.07-44.4,43.91-39.83,24,4.79,21,39.83,26.18,54.93" transform="translate(-221.92 -148.39)"/></g><g id="Calva"><path class="cls-1" d="M341.06,319.54c-14.68-13.51-24.7-34.63-1.92-56.48,16.72-16,44.15-13.56,58.83-.05s8,23.08-7.65,40.13S355.74,333.06,341.06,319.54Z" transform="translate(-221.92 -148.39)"/><path class="cls-1" d="M350.87,318.34c16.16,13.19,13.93,38.53,4.82,56.44-9.45,18.59-31.9,21.61-48.06,8.42s-19.5-17.86-17.67-41.87C291.85,316.71,334.71,305.15,350.87,318.34Z" transform="translate(-221.92 -148.39)"/><path class="cls-1" d="M338.27,382.17c17.67,5.69,23.8,33,22.07,50.81-1.8,18.47-21.66,22.41-37.08,22.56-18.56.19-29.45-18.69-31.46-37.14C289.43,396.56,320.61,376.49,338.27,382.17Z" transform="translate(-221.92 -148.39)"/><path class="cls-2" d="M386.8,292.23C375,295,362.7,297.34,352,289.92c-4.17-2.89-7.72-7-12.35-9.2a21.88,21.88,0,0,0-11.88-1.46c-6.07,15.77,2.32,30.16,13.31,40.28,14.68,13.52,33.56.66,49.26-16.4a133.84,133.84,0,0,0,10.77-12.79C396.7,289.1,390.8,291.28,386.8,292.23Z" transform="translate(-221.92 -148.39)"/><path class="cls-2" d="M356.54,353c-4.26-1.64-8.71.82-12.48,2.58-4.47,2.08-8.94,4-13.95,4.07-11.21.2-21.53-5.82-32.29-8.1a14.75,14.75,0,0,0-8.3.25c.07,15.34,4.62,20.42,18.11,31.43,16.16,13.19,38.61,10.17,48.06-8.42a67.26,67.26,0,0,0,5.75-16.23C360.52,356,359,353.92,356.54,353Z" transform="translate(-221.92 -148.39)"/><path class="cls-2" d="M359.32,430.19c0-6.93-9.63-5.18-14.4-4.9-8.23.49-14.9-.37-22.39-4.23-8.11-4.19-17.19-12.51-27-10.76a10.4,10.4,0,0,0-3.37,1.23,22.58,22.58,0,0,0-.35,6.87c2,18.45,12.9,37.33,31.46,37.14,15.39-.15,35.2-4.08,37.06-22.47A4.9,4.9,0,0,1,359.32,430.19Z" transform="translate(-221.92 -148.39)"/></g><g id="Sombrero"><path class="cls-13" d="M461.22,225s42.75-76.59,68.43-76.6c18.38,0,16.35,23.42,23.49,29.62,8.37,7.28,43.86-1.43,38.29,22.47-2.77,11.9-42.89,57.7-42.89,57.7s11.74,14,15.32,18.9c8.27,11.23-2.71,24.39-13.94,19.47-5.58-2.44-16.83-7.12-22.32-9.77-.7-.34-2.08-1.1-2.77-1.47A363.34,363.34,0,0,0,446.91,255c-4.08-1.07-12.31-3-16.32-4.27C416,246,420.48,224,435.77,224.37Z" transform="translate(-221.92 -148.39)"/></g></svg>